HIERARCHY
ROOT Hips
{
	OFFSET 0.000000 0.000000 0.000000
	CHANNELS 6 Xposition Yposition Zposition Zrotation Yrotation Xrotation 
	JOINT LeftUpLeg_virtual
	{
		OFFSET 0.000000 0.000000 0.000000
		CHANNELS 3 Zrotation Yrotation Xrotation
		JOINT LeftUpLeg
		{
			OFFSET 8.479694 -4.795517 -0.379053
			CHANNELS 3 Zrotation Yrotation Xrotation
			JOINT LeftLeg
			{
				OFFSET 0.485052 -32.551468 0.112863
				CHANNELS 3 Zrotation Yrotation Xrotation
				JOINT LeftFoot
				{
					OFFSET 0.438033 -32.635670 -3.012641
					CHANNELS 3 Zrotation Yrotation Xrotation
					JOINT LeftToeBase
					{
						OFFSET 0.970169 -13.225353 11.864223
						CHANNELS 3 Zrotation Yrotation Xrotation
						End Site
						{
							OFFSET 0.000000 0.000000 0.000000
						}
					}
				}
			}
		}
	}
	JOINT RightUpLeg_virtual
	{
		OFFSET 0.000000 0.000000 0.000000
		CHANNELS 3 Zrotation Yrotation Xrotation
		JOINT RightUpLeg
		{
			OFFSET -8.479694 -4.795517 -0.379053
			CHANNELS 3 Zrotation Yrotation Xrotation
			JOINT RightLeg
			{
				OFFSET -0.484100 -32.551483 0.112903
				CHANNELS 3 Zrotation Yrotation Xrotation
				JOINT RightFoot
				{
					OFFSET -0.438985 -32.635651 -3.012681
					CHANNELS 3 Zrotation Yrotation Xrotation
					JOINT RightToeBase
					{
						OFFSET -0.970169 -13.225354 11.864223
						CHANNELS 3 Zrotation Yrotation Xrotation
						End Site
						{
							OFFSET 0.000000 0.000000 0.000000
						}
					}
				}
			}
		}
	}
	JOINT Spine_virtual
	{
		OFFSET 0.000000 0.000000 0.000000
		CHANNELS 3 Zrotation Yrotation Xrotation
		JOINT Spine
		{
			OFFSET 0.000000 7.722015 1.166203
			CHANNELS 3 Zrotation Yrotation Xrotation
			JOINT Spine1
			{
				OFFSET 0.000000 12.024086 0.248766
				CHANNELS 3 Zrotation Yrotation Xrotation
				JOINT Spine2
				{
					OFFSET -0.000000 11.503036 -0.491240
					CHANNELS 3 Zrotation Yrotation Xrotation
					JOINT Neck_virtual
					{
						OFFSET 0.000000 0.000000 0.000000
						CHANNELS 3 Zrotation Yrotation Xrotation
						JOINT Neck
						{
							OFFSET 0.000000 18.430687 -3.123054
							CHANNELS 3 Zrotation Yrotation Xrotation
							JOINT Head
							{
								OFFSET -0.000000 9.051071 1.034021
								CHANNELS 3 Zrotation Yrotation Xrotation
								End Site
								{
									OFFSET 0.000000 0.000000 0.000000
								}
							}
						}
					}
					JOINT LeftShoulder_virtual
					{
						OFFSET 0.000000 0.000000 0.000000
						CHANNELS 3 Zrotation Yrotation Xrotation
						JOINT LeftShoulder
						{
							OFFSET 6.197824 13.665230 -4.064723
							CHANNELS 3 Zrotation Yrotation Xrotation
							JOINT LeftArm
							{
								OFFSET 7.778132 -0.187073 -1.709282
								CHANNELS 3 Zrotation Yrotation Xrotation
								JOINT LeftForeArm
								{
									OFFSET 21.954697 0.000000 -2.041093
									CHANNELS 3 Zrotation Yrotation Xrotation
									JOINT LeftHand
									{
										OFFSET 22.992908 0.000000 -0.870901
										CHANNELS 3 Zrotation Yrotation Xrotation
										End Site
										{
											OFFSET 0.000000 0.000000 0.000000
										}
									}
								}
							}
						}
					}
					JOINT RightShoulder_virtual
					{
						OFFSET 0.000000 0.000000 0.000000
						CHANNELS 3 Zrotation Yrotation Xrotation
						JOINT RightShoulder
						{
							OFFSET -6.197824 13.665230 -4.064723
							CHANNELS 3 Zrotation Yrotation Xrotation
							JOINT RightArm
							{
								OFFSET -7.778132 -0.187073 -1.709282
								CHANNELS 3 Zrotation Yrotation Xrotation
								JOINT RightForeArm
								{
									OFFSET -21.954697 0.000000 -2.041093
									CHANNELS 3 Zrotation Yrotation Xrotation
									JOINT RightHand
									{
										OFFSET -22.992908 0.000000 -0.870901
										CHANNELS 3 Zrotation Yrotation Xrotation
										End Site
										{
											OFFSET 0.000000 0.000000 0.000000
										}
									}
								}
							}
						}
					}
				}
			}
		}
	}
}
MOTION
Frames: 10
Frame Time: 0.033333
-6.958827 81.847015 34.912708 179.655463 20.546317 179.501975 -4.037177 -0.618267 9.152191 0.369791 7.785891 -23.282802 8.117082 7.877441 29.269242 -1.446429 -6.818443 -11.502579 0.000000 0.000000 0.000000 -1.344105 -3.865729 7.729886 -0.713144 -12.302302 -27.558671 -3.424471 1.610107 28.197394 5.929379 2.196360 -7.721729 0.000000 0.000000 0.000000 3.387691 -0.372529 1.069795 -5.533272 0.459801 -14.038550 1.563342 -3.507572 10.130104 0.025653 0.102081 -0.101008 1.741683 -2.755114 11.361793 0.950848 0.384801 -2.959931 0.000000 0.000000 0.000000 3.010012 -1.779396 7.385574 4.057804 0.366108 -5.336883 8.310003 -14.482658 -56.939531 12.926234 -48.882195 5.154646 0.000000 0.000000 0.000000 -0.810066 -0.490832 6.798184 10.282740 6.639986 1.673421 -25.549680 24.476849 -46.811661 -6.790257 42.635639 11.757870 0.000000 0.000000 0.000000 
-5.502943 81.920769 34.620670 -179.943997 21.890627 179.593527 -3.951280 -0.510904 9.004963 1.718718 7.988169 -22.335636 8.257521 7.386982 29.392541 -1.475166 -6.861281 -11.590468 0.000000 0.000000 0.000000 -1.750336 -2.241089 7.384422 -1.122579 -8.222447 -26.947560 -2.322014 3.999815 28.054561 6.392082 2.469562 -5.535149 0.000000 0.000000 0.000000 3.325256 -0.321126 0.626402 -5.365294 0.122976 -14.209116 1.645188 -3.619777 10.196161 -0.009014 0.052103 -0.047189 1.547777 -2.993040 11.208766 0.745838 0.746542 -2.936712 0.000000 0.000000 0.000000 2.970814 -1.797389 7.459198 4.092602 0.111424 -5.496867 8.948534 -15.205357 -55.853633 12.825118 -47.367297 5.238679 0.000000 0.000000 0.000000 -0.833914 -0.550531 6.748323 10.070836 6.722962 1.601689 -25.006772 23.651676 -47.159963 -6.870955 41.623265 11.393872 0.000000 0.000000 0.000000 
-3.883875 82.023483 34.283745 -179.699504 23.262789 179.610534 -3.913369 -0.406126 8.961335 3.095596 8.178232 -21.230741 8.316466 6.923286 29.302997 -1.548230 -6.888238 -11.419415 0.000000 0.000000 0.000000 -2.025816 -0.932108 7.078480 -1.126455 -4.983453 -26.262555 -1.660001 6.297999 27.769717 7.075445 3.021956 -3.842607 0.000000 0.000000 0.000000 3.163467 -0.323849 0.223174 -5.222966 -0.175318 -14.268891 1.741487 -3.717310 10.224301 -0.015280 -0.003572 -0.095520 1.684689 -2.740636 11.335936 0.870886 0.822750 -2.724039 0.000000 0.000000 0.000000 3.012489 -1.851284 7.506759 4.042575 -0.138972 -5.598024 9.352053 -15.673935 -54.794390 12.781471 -45.544576 5.210970 0.000000 0.000000 0.000000 -0.813437 -0.645406 6.708570 9.864613 6.829209 1.513207 -24.209249 22.846390 -47.300522 -6.901702 40.860265 11.050408 0.000000 0.000000 0.000000 
-2.152142 82.128433 33.939381 -179.812694 25.195424 179.582721 -4.078335 -0.445785 9.107903 4.242740 8.653559 -20.156020 8.289955 6.714654 29.060932 -1.615803 -6.841028 -11.044017 0.000000 0.000000 0.000000 -1.981310 -0.854070 7.030259 -0.237324 -3.679470 -25.435935 -1.565338 6.064711 27.409894 6.684625 2.700918 -4.340543 0.000000 0.000000 0.000000 2.848718 -0.194169 -0.109285 -5.183324 -0.468753 -14.348528 1.787997 -3.805613 10.215018 -0.013758 -0.013262 -0.080904 1.869623 -2.769739 11.205865 0.999882 0.891218 -2.711716 0.000000 0.000000 0.000000 3.079892 -1.808353 7.485182 3.934503 -0.077608 -5.697310 9.487006 -16.075806 -53.724615 12.687625 -43.837428 5.083429 0.000000 0.000000 0.000000 -0.747561 -0.625112 6.700898 9.685955 7.068044 1.560944 -23.414703 22.070506 -47.377720 -7.029058 40.182153 10.487267 0.000000 0.000000 0.000000 
-0.325589 82.210068 33.628689 -179.811464 27.612973 179.597871 -4.163055 -0.277923 9.000816 5.435424 9.185910 -18.741395 8.241865 6.414398 28.875116 -1.565541 -6.585344 -10.589942 0.000000 0.000000 0.000000 -1.866909 -0.583572 7.091803 0.649287 -2.114791 -24.660477 -1.483738 5.791011 26.967156 6.226219 2.459128 -4.832547 0.000000 0.000000 0.000000 2.616334 0.045201 -0.218264 -5.063750 -0.680421 -14.393048 1.948079 -3.788454 10.192061 -0.063495 0.029075 -0.116175 1.994551 -2.907625 11.138529 1.005768 1.028480 -2.606412 0.000000 0.000000 0.000000 3.170731 -1.816792 7.417311 3.877387 0.048090 -5.729074 9.237582 -16.197722 -52.560669 12.465748 -42.494189 4.936981 0.000000 0.000000 0.000000 -0.685138 -0.592178 6.746865 9.543128 7.178087 1.507477 -22.445398 21.367434 -47.070522 -7.130198 40.043166 9.986958 0.000000 0.000000 0.000000 
1.549327 82.242607 33.427479 -179.896787 30.343477 179.649220 -4.338704 0.311015 9.382586 6.553044 9.210957 -18.065454 8.374482 6.155170 28.818194 -1.442582 -6.130802 -9.890263 0.000000 0.000000 0.000000 -1.818604 -0.435584 7.140828 1.397485 0.092269 -24.037514 -1.392168 5.305478 26.493283 5.784226 2.377514 -5.336745 0.000000 0.000000 0.000000 2.389150 0.555214 -0.259183 -4.944187 -0.866162 -14.435899 1.959450 -3.817662 10.146333 -0.013775 0.095888 -0.069868 2.157464 -2.805811 11.137885 1.008691 1.017861 -2.612508 0.000000 0.000000 0.000000 3.244217 -1.875494 7.443441 3.754918 0.284130 -5.677982 8.833711 -16.261425 -51.702760 12.294976 -41.726121 4.642425 0.000000 0.000000 0.000000 -0.607723 -0.674903 6.750996 9.613090 7.194267 1.598478 -21.706982 20.897208 -46.650766 -7.094992 40.397229 9.674543 0.000000 0.000000 0.000000 
3.406116 82.234276 33.384949 -179.899820 32.929510 179.834359 -4.437930 1.109116 9.585375 7.712735 8.937875 -17.653239 8.343268 5.595344 29.129715 -1.223512 -5.436752 -9.061650 0.000000 0.000000 0.000000 -1.730931 -0.186740 7.116820 2.259319 1.872018 -23.535561 -1.349276 4.748450 26.096083 5.314257 2.359465 -5.828725 0.000000 0.000000 0.000000 2.258411 0.958361 -0.297421 -4.781121 -1.124303 -14.514873 2.013936 -3.929930 10.156604 0.025435 0.084142 -0.041858 2.155014 -2.967555 11.154831 0.805315 1.158091 -2.632994 0.000000 0.000000 0.000000 3.239174 -1.938131 7.449716 3.616468 0.554214 -5.560983 8.689323 -16.290945 -51.125120 12.167777 -41.311276 4.310757 0.000000 0.000000 0.000000 -0.640396 -0.733171 6.771235 9.947357 7.219470 1.707428 -21.326122 20.610285 -46.234858 -7.100591 41.071099 9.381677 0.000000 0.000000 0.000000 
5.214015 82.202347 33.484875 -179.817489 35.494075 -179.986987 -4.425333 1.697411 9.358337 8.599501 9.472275 -17.714929 8.695293 5.725515 30.683484 -0.600564 -4.124386 -7.264395 0.000000 0.000000 0.000000 -1.556909 0.115508 7.081041 3.595007 1.507980 -23.078011 -1.262546 4.968407 25.800155 5.120167 2.761875 -6.220198 0.000000 0.000000 0.000000 2.222044 1.231400 -0.226041 -4.680557 -1.437418 -14.547886 2.002141 -4.112819 10.177617 0.035435 -0.012629 -0.008168 2.175379 -2.859189 11.257954 0.628862 1.096596 -2.682956 0.000000 0.000000 0.000000 3.182775 -2.083692 7.523310 3.579966 0.847332 -5.434304 8.667876 -16.662957 -51.204388 12.076010 -41.272634 3.787073 0.000000 0.000000 0.000000 -0.711904 -0.859406 6.798415 10.543823 7.148673 1.865312 -21.233279 20.369528 -45.731887 -7.143843 41.805071 9.256453 0.000000 0.000000 0.000000 
6.885386 82.182190 33.717659 -179.815918 38.433089 -179.867103 -4.396308 1.950642 9.170828 9.353377 10.189424 -18.063166 9.040053 5.844400 32.751747 -0.081293 -2.897968 -5.313404 0.000000 0.000000 0.000000 -1.468593 0.504341 7.007520 4.710025 1.948288 -22.620007 -1.082337 4.781311 25.638713 4.878768 3.186426 -6.397367 0.000000 0.000000 0.000000 2.244896 1.443705 -0.175770 -4.659518 -1.604952 -14.493747 1.936276 -4.195755 10.237531 0.034105 -0.006212 0.021059 2.122358 -2.973196 11.365273 0.239537 1.192443 -2.777606 0.000000 0.000000 0.000000 3.166099 -2.225513 7.613211 3.590441 1.186324 -5.300025 8.983969 -17.238749 -52.032723 12.143064 -41.813441 3.066397 0.000000 0.000000 0.000000 -0.708611 -1.045218 6.918144 11.395460 6.876732 2.079803 -21.445778 19.971272 -45.484982 -7.160313 42.630919 9.242628 0.000000 0.000000 0.000000 
8.374418 82.194786 33.997341 -179.583090 41.410658 -179.695283 -4.313378 1.921804 9.002776 10.085112 10.667437 -18.730522 9.489057 5.833878 35.495516 0.363482 -1.776663 -3.575193 0.000000 0.000000 0.000000 -1.514565 0.546491 6.926196 5.903359 2.515845 -22.139315 -0.765562 4.539260 25.530120 4.726886 3.713381 -6.037977 0.000000 0.000000 0.000000 2.368378 1.449640 -0.035827 -4.627080 -1.770937 -14.334841 1.851618 -4.282176 10.316533 0.009883 -0.031080 0.002434 1.874396 -3.153929 11.505231 -0.454421 1.466492 -2.974675 0.000000 0.000000 0.000000 3.147680 -2.345957 7.664642 3.594461 1.738620 -5.128378 9.496178 -17.817278 -53.563597 12.533297 -43.260270 1.972003 0.000000 0.000000 0.000000 -0.756540 -0.973223 7.074997 12.322720 6.372987 2.385863 -21.721473 19.118731 -45.412237 -7.077110 43.601301 9.494040 0.000000 0.000000 0.000000 
